<svg width="68" height="56" viewBox="0 0 68 56" fill="none" xmlns="http://www.w3.org/2000/svg">
<path d="M36.0987 17.6712C36.9247 24.6153 42.8335 30 50 30C57.732 30 64 23.732 64 16C64 14.8954 64.8954 14 66 14C67.1046 14 68 14.8954 68 16C68 25.9411 59.9411 34 50 34V40C50 48.8366 42.8366 56 34 56C25.1634 56 18 48.8366 18 40V34C8.05888 34 0 25.9411 0 16C0 14.8954 0.895431 14 2 14C3.10457 14 4 14.8954 4 16C4 23.732 10.268 30 18 30C25.1665 30 31.0753 24.6153 31.9013 17.6712C31.6979 17.5374 31.5179 17.366 31.3726 17.1625L23.6315 6.32495C22.3474 4.5273 22.7638 2.02909 24.5614 0.745056C25.2398 0.260483 26.0527 0 26.8864 0H41.1136C43.3228 0 45.1136 1.79086 45.1136 4C45.1136 4.83369 44.8531 5.64655 44.3685 6.32495L36.6274 17.1625C36.4821 17.366 36.3021 17.5374 36.0987 17.6712ZM32 27.3146C29.5027 30.4009 26.0055 32.6445 22 33.5536V40C22 46.6274 27.3726 52 34 52C40.6274 52 46 46.6274 46 40V33.5536C41.9945 32.6445 38.4973 30.4009 36 27.3146V39C36 40.1046 35.1046 41 34 41C32.8954 41 32 40.1046 32 39V27.3146ZM34 13.9591L41.1136 4H26.8864L34 13.9591Z" fill="white"/>
</svg>
